HIERARCHY
ROOT Hips
{
	OFFSET 0.00000 0.00000 0.00000
	CHANNELS 6 Xposition Yposition Zposition Zrotation Yrotation Xrotation 
	JOINT LHipJoint
	{
		OFFSET 0 0 0
		CHANNELS 3 Zrotation Yrotation Xrotation
		JOINT LeftUpLeg
		{
			OFFSET 1.56857 -1.73443 1.15205
			CHANNELS 3 Zrotation Yrotation Xrotation
			JOINT LeftLeg
			{
				OFFSET 2.39362 -6.57643 0.00000
				CHANNELS 3 Zrotation Yrotation Xrotation
				JOINT LeftFoot
				{
					OFFSET 2.50952 -6.89485 0.00000
					CHANNELS 3 Zrotation Yrotation Xrotation
					JOINT LeftToeBase
					{
						OFFSET 0.17171 -0.47178 1.88682
						CHANNELS 3 Zrotation Yrotation Xrotation
						End Site
						{
							OFFSET 0.00000 -0.00000 0.98146
						}
					}
				}
			}
		}
	}
	JOINT RHipJoint
	{
		OFFSET 0 0 0
		CHANNELS 3 Zrotation Yrotation Xrotation
		JOINT RightUpLeg
		{
			OFFSET -1.28153 -1.73443 1.15205
			CHANNELS 3 Zrotation Yrotation Xrotation
			JOINT RightLeg
			{
				OFFSET -2.26861 -6.23296 0.00000
				CHANNELS 3 Zrotation Yrotation Xrotation
				JOINT RightFoot
				{
					OFFSET -2.54143 -6.98254 0.00000
					CHANNELS 3 Zrotation Yrotation Xrotation
					JOINT RightToeBase
					{
						OFFSET -0.23309 -0.64041 1.93119
						CHANNELS 3 Zrotation Yrotation Xrotation
						End Site
						{
							OFFSET -0.00000 -0.00000 1.02013
						}
					}
				}
			}
		}
	}
	JOINT LowerBack
	{
		OFFSET 0 0 0
		CHANNELS 3 Zrotation Yrotation Xrotation
		JOINT Spine
		{
			OFFSET -0.07096 2.10460 -0.27878
			CHANNELS 3 Zrotation Yrotation Xrotation
			JOINT Spine1
			{
				OFFSET -0.00826 2.13662 -0.08279
				CHANNELS 3 Zrotation Yrotation Xrotation
				JOINT Neck
				{
					OFFSET 0 0 0
					CHANNELS 3 Zrotation Yrotation Xrotation
					JOINT Neck1
					{
						OFFSET 0.03239 1.77799 0.24435
						CHANNELS 3 Zrotation Yrotation Xrotation
						JOINT Head
						{
							OFFSET 0.01026 1.74194 -0.49664
							CHANNELS 3 Zrotation Yrotation Xrotation
							End Site
							{
								OFFSET 0.00170 1.83057 -0.19653
							}
						}
					}
				}
				JOINT LeftShoulder
				{
					OFFSET 0 0 0
					CHANNELS 3 Zrotation Yrotation Xrotation
					JOINT LeftArm
					{
						OFFSET 3.19178 1.35907 -0.31412
						CHANNELS 3 Zrotation Yrotation Xrotation
						JOINT LeftForeArm
						{
							OFFSET 4.85247 -0.00000 -0.00000
							CHANNELS 3 Zrotation Yrotation Xrotation
							JOINT LeftHand
							{
								OFFSET 3.55584 -0.00000 0.00000
								CHANNELS 3 Zrotation Yrotation Xrotation
								JOINT LeftFingerBase
								{
									OFFSET 0 0 0
									CHANNELS 3 Zrotation Yrotation Xrotation
									JOINT LeftHandIndex1
									{
										OFFSET 0.69320 -0.00000 0.00000
										CHANNELS 3 Zrotation Yrotation Xrotation
										End Site
										{
											OFFSET 0.55888 -0.00000 0.00000
										}
									}
								}
								JOINT LThumb
								{
									OFFSET 0 0 0
									CHANNELS 3 Zrotation Yrotation Xrotation
									End Site
									{
										OFFSET 0.56741 -0.00000 0.56741
									}
								}
							}
						}
					}
				}
				JOINT RightShoulder
				{
					OFFSET 0 0 0
					CHANNELS 3 Zrotation Yrotation Xrotation
					JOINT RightArm
					{
						OFFSET -3.28999 1.24191 -0.26899
						CHANNELS 3 Zrotation Yrotation Xrotation
						JOINT RightForeArm
						{
							OFFSET -4.64462 -0.00000 0.00000
							CHANNELS 3 Zrotation Yrotation Xrotation
							JOINT RightHand
							{
								OFFSET -3.40703 -0.00000 0.00000
								CHANNELS 3 Zrotation Yrotation Xrotation
								JOINT RightFingerBase
								{
									OFFSET 0 0 0
									CHANNELS 3 Zrotation Yrotation Xrotation
									JOINT RightHandIndex1
									{
										OFFSET -0.61958 -0.00000 0.00000
										CHANNELS 3 Zrotation Yrotation Xrotation
										End Site
										{
											OFFSET -0.49952 -0.00000 0.00000
										}
									}
								}
								JOINT RThumb
								{
									OFFSET 0 0 0
									CHANNELS 3 Zrotation Yrotation Xrotation
									End Site
									{
										OFFSET -0.50715 -0.00000 0.50715
									}
								}
							}
						}
					}
				}
			}
		}
	}
}
MOTION
Frames: 15
Frame Time: .0083333
23.4381 17.6865 -1.7986 -33.9192 77.7915 -30.5031 0.0000 0.0000 0.0000 -10.6650 2.5517 -27.1191 0.2186 3.0099 8.3063 179.7463 -8.9534 4.4360 0.0580 -1.5546 -4.2764 0.0000 0.0000 0.0000 22.0222 -0.6582 25.1598 -9.2707 -16.9788 57.0215 -179.6702 10.1458 4.5312 -1.4669 -7.6541 21.6682 7.0688 7.4090 10.5177 0.8639 10.7525 0.7697 -4.3540 5.2294 -3.9024 -0.8646 -2.8305 -30.5114 0.6866 -3.7638 23.6782 -0.3203 -1.6076 12.9888 -0.0000 0.0000 0.0000 -51.9246 55.6243 75.8603 119.2517 -56.5061 -85.0356 -0.0000 0.0000 -23.8255 45.7864 -26.2668 -24.4594 -7.1250 0.0000 -0.0000 9.1613 -4.9074 -10.0360 -0.0000 0.0000 0.0000 77.2868 -7.2807 54.3009 -141.8715 46.9212 -102.9406 0.0000 -0.0000 -20.4551 -28.4523 -11.2133 6.0153 7.1250 -0.0000 -0.0000 -1.2042 -42.6832 -0.0689
23.9325 17.5764 -1.8081 -34.6855 77.5830 -31.7065 0.0000 0.0000 0.0000 -10.4499 2.8828 -26.4602 0.2746 3.3707 9.3125 179.7510 -8.8545 4.2247 0.0603 -1.5841 -4.3577 0.0000 0.0000 0.0000 22.3065 -0.3625 24.7341 -10.5438 -17.7045 61.2908 -179.7087 9.5360 4.1331 -1.4020 -7.4900 21.1754 7.1970 7.2632 10.7037 0.8395 10.5867 0.8355 -4.4530 5.1459 -3.9275 -0.7710 -2.8021 -30.6957 0.8754 -3.8290 23.9542 -0.2787 -1.5925 13.1396 -0.0000 -0.0000 0.0000 -53.6335 54.1958 74.1771 118.4129 -56.7182 -84.3352 -0.0000 0.0000 -23.7844 46.1852 -26.4816 -24.9266 -7.1250 0.0000 -0.0000 9.3262 -5.3380 -10.2852 -0.0000 -0.0000 0.0000 77.5311 -8.9675 54.8839 -140.8902 47.5335 -102.2203 0.0000 -0.0000 -20.8105 -28.3823 -11.4519 6.1229 7.1250 -0.0000 -0.0000 -1.1221 -42.9436 -0.0570
24.4214 17.4443 -1.8156 -37.3910 77.7717 -34.7690 0.0000 0.0000 0.0000 -10.3030 3.1027 -26.1342 0.3681 3.8969 10.7868 179.8093 -7.8624 4.4878 0.0718 -1.7281 -4.7548 0.0000 0.0000 0.0000 22.5941 -0.6998 24.0976 -11.8100 -18.3092 65.3853 -179.7186 9.3562 3.5796 -1.1948 -6.9357 19.5251 7.5380 6.8947 10.8882 0.8153 10.1568 0.8010 -4.6473 4.9201 -4.0546 -0.7717 -2.7072 -30.3455 1.2763 -3.8184 23.8613 -0.1139 -1.5301 13.0475 -0.0000 0.0000 0.0000 -55.1021 52.6272 72.6238 117.3715 -56.9706 -83.4633 -0.0000 0.0000 -23.5752 46.2572 -26.6610 -25.1194 -7.1250 0.0000 -0.0000 9.3183 -5.5844 -10.3124 -0.0000 0.0000 0.0000 77.8799 -10.7334 55.3392 -139.6586 48.2709 -101.3063 0.0000 -0.0000 -21.1750 -28.0430 -11.8022 6.2178 7.1250 -0.0000 -0.0000 -0.7832 -43.2977 -0.0329
24.9065 17.3066 -1.8237 -38.2008 78.1958 -36.0835 0.0000 0.0000 0.0000 -10.7331 3.3500 -25.5499 0.4764 4.4265 12.2797 179.8585 -6.9801 4.7984 0.0467 -1.3953 -3.8372 0.0000 0.0000 0.0000 22.1628 -1.1252 23.5171 -13.1276 -18.8277 69.5213 -179.7343 9.1056 2.8663 -1.0486 -6.5118 18.2767 7.3435 6.5327 11.1295 0.7210 9.6674 0.8425 -4.6260 4.6733 -4.2200 -0.9901 -2.6284 -29.8409 1.8566 -3.7831 23.7153 0.1619 -1.4533 12.9145 -0.0000 -0.0000 0.0000 -56.6072 50.9172 70.9948 116.2444 -57.2304 -82.5170 -0.0000 0.0000 -23.0343 45.9069 -26.2821 -24.5621 -7.1250 0.0000 -0.0000 9.2245 -4.9778 -10.1172 -0.0000 -0.0000 0.0000 78.0968 -12.4502 55.8019 -138.1933 49.1046 -100.2057 0.0000 -0.0000 -21.6489 -28.0730 -12.1892 6.4251 7.1250 -0.0000 -0.0000 -0.7762 -43.7346 -0.0242
25.3744 17.1636 -1.8211 -38.3944 78.6839 -36.8287 0.0000 0.0000 0.0000 -11.2587 3.6886 -25.0578 0.6266 5.0653 14.0950 179.9044 -6.1292 5.1760 0.0020 -0.2893 -0.7948 0.0000 0.0000 0.0000 21.5680 -1.5820 22.7948 -14.5109 -19.2617 73.7590 -179.7813 8.2625 2.8169 -1.2607 -7.1177 20.0645 6.7357 6.1450 11.5280 0.6793 9.1048 0.9274 -4.3354 4.3940 -4.5061 -0.8500 -2.5021 -29.9667 1.9289 -3.6950 23.9583 0.1829 -1.3847 13.0349 -0.0000 -0.0000 0.0000 -58.3866 49.1035 69.1433 115.0169 -57.4979 -81.4832 -0.0000 0.0000 -22.5378 45.4320 -25.7897 -23.8300 -7.1250 0.0000 -0.0000 9.0878 -4.1844 -9.8476 -0.0000 -0.0000 0.0000 78.0924 -13.9682 56.3752 -136.4609 50.0324 -98.8869 0.0000 -0.0000 -22.1078 -28.2771 -12.6927 6.7408 7.1250 -0.0000 -0.0000 -0.9178 -44.3234 -0.0153
25.8402 17.0141 -1.8166 -39.3503 79.1175 -38.4004 0.0000 0.0000 0.0000 -11.6890 4.2584 -24.6660 0.8312 5.8165 16.2528 179.9356 -4.7110 3.2186 0.0150 0.7903 2.1720 0.0000 0.0000 0.0000 21.0938 -2.1271 22.0649 -15.8663 -19.5853 77.8332 -179.8025 7.9386 1.6646 -0.9751 -6.2862 17.6172 6.2328 5.6949 12.1503 0.6825 8.4918 0.9132 -4.0720 4.0770 -5.0081 -0.6163 -2.3338 -29.9610 1.8156 -3.5327 24.2198 0.1318 -1.3031 13.1309 0.0000 -0.0000 0.0000 -59.9812 47.3419 67.5044 113.5465 -57.7977 -80.2411 -0.0000 0.0000 -22.2177 44.8602 -25.4010 -23.1159 -7.1250 0.0000 -0.0000 8.8656 -3.4802 -9.4991 0.0000 -0.0000 0.0000 78.1592 -15.7572 56.8255 -134.5579 50.9832 -97.4183 0.0000 -0.0000 -22.1633 -27.3525 -13.6296 6.9500 7.1250 -0.0000 -0.0000 0.0429 -45.2491 -0.0003
26.2983 16.8570 -1.8167 -40.3519 79.7616 -39.9993 0.0000 0.0000 0.0000 -12.7809 5.4700 -24.9328 1.1981 6.9452 19.5530 179.9704 -3.3564 -0.2714 0.2764 -3.3818 -9.3435 0.0000 0.0000 0.0000 20.3579 -2.8293 21.1669 -17.4233 -19.8401 82.4469 -179.0682 -18.4352 1.3088 -1.7668 -8.3625 23.8207 5.6986 5.2036 12.8873 0.6196 7.8171 0.8565 -3.8498 3.7268 -5.6098 -0.5231 -1.8730 -28.9063 1.9164 -2.9377 23.6822 0.2793 -1.0346 12.7073 -0.0000 -0.0000 0.0000 -61.3359 45.4336 66.1580 111.8284 -58.1208 -78.7847 -0.0000 0.0000 -21.9075 44.1730 -24.8227 -22.1888 -7.1250 0.0000 -0.0000 8.6206 -2.5094 -9.0916 -0.0000 -0.0000 0.0000 78.2698 -17.5689 57.1660 -132.3503 52.0024 -95.6906 0.0000 -0.0000 -22.5313 -26.2414 -13.9786 6.7908 7.1250 -0.0000 -0.0000 1.1272 -45.4880 -0.0136
26.7534 16.6884 -1.8231 -40.1102 80.8659 -40.2414 0.0000 0.0000 0.0000 -14.5723 6.1424 -25.2438 1.6427 8.0785 22.9528 179.9743 -3.6362 -1.0871 0.0047 0.4428 1.2168 0.0000 0.0000 0.0000 18.9429 -3.6876 20.0483 -18.8322 -19.9673 86.5839 -173.0760 -44.1677 -0.1415 -1.7126 -8.2400 23.4454 4.7891 4.6896 13.4490 0.4025 7.0210 0.8881 -3.5183 3.3384 -6.0455 -0.5410 -1.5344 -28.1569 2.2527 -2.5371 22.9606 0.4893 -0.8270 12.2814 0.0000 0.0000 0.0000 -62.6747 43.1810 64.8893 109.8136 -58.4634 -77.0705 -0.0000 0.0000 -21.6689 43.5663 -24.4169 -21.4640 -7.1250 0.0000 -0.0000 8.3729 -1.7864 -8.7224 0.0000 0.0000 0.0000 78.3100 -18.9878 57.3983 -129.7170 53.1090 -93.5997 0.0000 -0.0000 -22.8928 -25.8193 -14.1673 6.7535 7.1250 -0.0000 -0.0000 1.5491 -45.6389 -0.0244
27.1934 16.5120 -1.8294 -37.2398 82.7810 -37.7253 0.0000 0.0000 0.0000 -16.9043 3.5104 -25.0189 2.2380 9.3452 26.8814 179.9606 -6.5665 -3.5110 0.0335 1.1807 3.2463 0.0000 0.0000 0.0000 16.5013 -4.8933 18.6155 -19.3947 -19.9912 88.2299 -151.1788 -70.0214 -4.0339 -1.4030 -7.4927 21.1834 3.0856 4.0687 13.9832 -0.0321 5.9288 0.8643 -2.9032 2.8249 -6.5849 -0.3165 -1.2239 -27.7802 2.2854 -2.1967 22.5980 0.5270 -0.6588 12.0620 0.0000 0.0000 0.0000 -64.0376 40.8686 63.5517 107.7313 -58.7781 -75.2928 -0.0000 0.0000 -21.4178 43.0140 -24.0185 -20.7942 -7.1250 0.0000 -0.0000 8.1502 -1.1002 -8.3899 0.0000 0.0000 0.0000 78.4117 -20.3171 57.5386 -126.6094 54.2747 -91.0951 0.0000 -0.0000 -22.5293 -24.7819 -15.6967 7.1197 7.1250 -0.0000 -0.0000 2.7779 -47.1595 -0.1481
27.6110 16.3427 -1.8364 -16.2928 85.0887 -16.7199 0.0000 0.0000 0.0000 -20.8864 -0.1778 -25.9413 3.2364 11.0683 32.5106 179.9660 -9.6698 -6.1747 0.0284 1.0872 2.9887 0.0000 0.0000 0.0000 12.2796 -5.6548 16.4595 -18.9035 -19.9712 86.7926 68.6206 -83.0376 -159.0124 -1.0455 -6.5023 18.2491 -0.1857 3.6303 14.2510 -0.8961 4.7693 0.7323 -1.8064 2.3333 -7.1395 -0.1205 -0.9494 -27.6569 2.3752 -1.9141 22.2963 0.5787 -0.5081 11.9171 -0.0000 0.0000 0.0000 -65.3950 38.4308 62.1833 105.7343 -59.0436 -73.5825 -0.0000 0.0000 -21.1253 42.6323 -23.2993 -20.0078 -7.1250 0.0000 -0.0000 8.0968 -0.0968 -8.1926 -0.0000 0.0000 0.0000 78.6382 -21.4239 57.7046 -122.5650 55.5868 -87.7842 0.0000 -0.0000 -22.2843 -25.2797 -15.7065 7.2856 7.1250 -0.0000 -0.0000 2.3052 -47.2419 -0.1276
28.0215 16.1991 -1.8252 42.8444 84.9633 42.7019 0.0000 0.0000 0.0000 -26.7086 -4.2962 -26.4736 4.2401 12.4733 37.4275 -179.9485 -11.8498 -9.0196 0.0117 0.6982 1.9189 0.0000 0.0000 0.0000 6.0686 -6.4030 13.6691 -17.4922 -19.8485 82.6500 125.4041 -56.5149 -175.0928 -1.0072 -6.3858 17.9081 -5.5755 3.3851 14.1422 -2.1401 3.5305 0.8599 0.1441 1.8973 -7.2194 0.2866 -0.6008 -28.1554 1.9507 -1.4825 21.9564 0.4267 -0.3445 11.8620 0.0000 -0.0000 0.0000 -66.8560 35.2056 60.8849 103.4300 -59.3074 -71.6036 -0.0000 0.0000 -21.0424 42.6305 -22.7918 -19.6261 -7.1250 0.0000 -0.0000 8.2121 0.5157 -8.2230 0.0000 -0.0000 0.0000 78.9704 -21.8685 57.3708 -117.9199 56.8392 -83.9227 0.0000 -0.0000 -21.7189 -25.1551 -16.9268 7.7856 7.1250 -0.0000 -0.0000 2.6514 -48.5455 -0.2320
28.4329 16.0709 -1.8099 69.1852 81.7972 69.6002 0.0000 0.0000 0.0000 -31.9764 -6.4582 -26.1298 4.7842 13.1365 39.8817 -179.7553 -12.5149 -11.7321 0.0262 1.0441 2.8702 0.0000 0.0000 0.0000 0.7311 -6.8294 10.0649 -15.9028 -19.5927 77.9419 137.1895 -29.5396 -178.4243 -1.1313 -6.7554 18.9926 -10.4356 3.1586 13.6363 -3.1835 2.5415 1.1846 1.9666 1.5546 -6.7027 -0.0183 -0.3731 -28.9852 2.2378 -1.1214 21.3005 0.6466 -0.1760 11.7583 0.0000 0.0000 0.0000 -68.2874 31.1627 59.7997 100.9157 -59.5450 -69.4388 -0.0000 0.0000 -21.2824 42.8319 -22.5199 -19.5481 -7.1250 0.0000 -0.0000 8.3922 0.7734 -8.3688 0.0000 0.0000 0.0000 79.4473 -22.1163 56.6816 -113.1265 57.8794 -79.8856 0.0000 -0.0000 -21.5015 -25.4725 -17.4884 8.1471 7.1250 -0.0000 -0.0000 2.4540 -49.2032 -0.2545
28.8497 15.9577 -1.8162 76.6192 80.9412 77.5149 0.0000 0.0000 0.0000 -33.7401 -6.8880 -25.3924 5.0798 13.4731 41.1661 -179.5266 -12.2964 -14.0020 0.0412 1.3095 3.6007 0.0000 0.0000 0.0000 -0.6928 -7.1215 6.5123 -14.6630 -19.3029 74.2194 137.9397 -25.6254 -178.6308 -1.0845 -6.6187 18.5905 -11.6345 2.7183 13.2536 -3.5464 1.8893 1.6055 2.3999 1.2375 -5.9800 -0.5216 -0.3160 -30.0142 2.8747 -0.9968 20.6011 0.9890 -0.0750 11.6768 0.0000 0.0000 0.0000 -69.1953 26.7009 59.2936 98.4774 -59.7267 -67.3349 -0.0000 0.0000 -21.6764 43.0412 -21.6864 -19.0389 -7.1250 0.0000 -0.0000 8.7044 1.7148 -8.5400 0.0000 0.0000 0.0000 80.1612 -22.5214 55.2884 -108.0448 58.7332 -75.5608 0.0000 -0.0000 -20.1788 -25.6881 -16.9016 7.9609 7.1250 -0.0000 -0.0000 2.1290 -48.6011 -0.1892
29.2716 15.8790 -1.8499 84.0624 81.7234 85.2487 0.0000 0.0000 0.0000 -33.6613 -6.8080 -24.1752 5.1696 13.5722 41.5501 -179.3650 -11.8298 -15.3688 0.0446 1.3632 3.7487 0.0000 0.0000 0.0000 -0.0013 -7.7372 3.5210 -13.6233 -18.9958 71.0508 138.4425 -22.6943 -179.4531 -0.9724 -6.2779 17.5929 -10.4953 2.1074 13.1851 -3.6060 1.3048 2.0467 1.8379 0.8942 -5.3640 -0.8791 -0.4380 -30.9853 3.4416 -1.1476 19.9507 1.2318 -0.0894 11.6060 0.0000 0.0000 0.0000 -69.5047 22.0629 59.4179 95.7157 -59.8762 -64.9479 -0.0000 0.0000 -21.9840 44.0288 -21.8005 -19.7478 -7.1250 0.0000 -0.0000 9.2595 1.2227 -9.1813 0.0000 0.0000 0.0000 81.0450 -23.2560 53.3917 -102.9774 59.3540 -71.2144 0.0000 -0.0000 -18.4529 -25.9406 -16.6125 7.9176 7.1250 -0.0000 -0.0000 1.8305 -48.3259 -0.1502
29.6952 15.8460 -1.8902 91.6175 81.5401 93.0792 0.0000 0.0000 0.0000 -34.5241 -6.7491 -22.4659 5.1181 13.5156 41.3305 -179.2373 -11.6583 -16.4661 0.0256 1.0332 2.8403 0.0000 0.0000 0.0000 -0.2839 -8.1045 0.0123 -12.7043 -18.6728 68.2044 138.7685 -20.4131 -179.8360 -1.0749 -6.5903 18.5071 -10.2818 1.5394 13.1577 -3.8752 0.5781 1.9871 1.5659 0.5375 -5.3278 -0.6702 -0.4586 -30.7953 3.5609 -1.2904 19.6576 1.2131 -0.1228 11.4655 -0.0000 0.0000 0.0000 -69.6199 18.5557 59.7141 93.2658 -59.9597 -62.8278 -0.0000 0.0000 -22.1678 44.7666 -22.1921 -20.5383 -7.1250 0.0000 -0.0000 9.5988 0.4657 -9.6573 -0.0000 0.0000 0.0000 81.6568 -25.1234 51.9708 -98.0639 59.7529 -66.9777 0.0000 -0.0000 -16.8735 -26.3044 -17.0481 8.2461 7.1250 -0.0000 -0.0000 1.5556 -48.8579 -0.1480
